<svg width="96" height="98" xmlns="http://www.w3.org/2000/svg" xmlns:xlink="http://www.w3.org/1999/xlink" xml:space="preserve" overflow="hidden"><g transform="translate(-884 -430)"><g><g><g><g><path d="M974.291 468.088C974.261 467.638 973.933 467.264 973.491 467.175L962.919 465.021C962.59 464.951 962.249 465.054 962.013 465.293L960.685 466.621 941.237 447.371C938.822 444.617 934.687 444.207 931.777 446.431L910.683 463.024C910.456 463.014 910.23 463 910 463 900.064 463.012 892.012 471.064 892 481L892 502.1C889.674 502.578 888.003 504.625 888 507L888 512 932 512 932 507C931.993 504.607 930.294 502.554 927.944 502.1L928 481C927.996 476.979 926.635 473.077 924.138 469.926L933.624 458.576C935.124 459.129 936.771 459.141 938.279 458.611L953.612 473.694 952.156 475.149C951.92 475.384 951.817 475.722 951.881 476.049L953.926 486.732C954.012 487.179 954.388 487.511 954.842 487.541L965.448 488.248 965.516 488.248C966.068 488.266 966.531 487.833 966.549 487.28 966.567 486.728 966.133 486.266 965.581 486.248L955.745 485.593 953.945 476.188 963.045 467.088 972.345 468.982 973 478.827C973.044 479.375 973.515 479.788 974.064 479.759 974.615 479.725 975.034 479.25 975 478.699 975 478.697 975 478.696 975 478.694ZM930 507 930 510 890 510 890 507C890 505.343 891.343 504 893 504L927 504C928.657 504 930 505.343 930 507ZM926 481 925.944 502 894 502 894 481C894.013 472.948 900.003 466.158 907.991 465.143L903.981 468.3C900.458 471.251 899.994 476.499 902.945 480.022 904.526 481.909 906.861 483 909.323 483 909.444 483 909.566 483 909.688 482.991 912.02 482.885 914.2 481.807 915.7 480.019L922.831 471.487C924.887 474.233 925.998 477.57 926 481ZM914.168 478.735C913.035 480.103 911.374 480.924 909.6 480.993 907.825 481.091 906.095 480.418 904.852 479.148 902.383 476.681 902.38 472.68 904.847 470.21 904.973 470.084 905.105 469.963 905.241 469.848L929.041 451.113C929.052 451.105 929.059 451.113 929.057 451.122 928.721 453.626 929.783 456.112 931.823 457.602ZM931.042 452.652C930.682 449.914 932.61 447.403 935.348 447.043 938.086 446.684 940.597 448.611 940.957 451.349 941.317 454.087 939.389 456.598 936.651 456.958 936.218 457.015 935.78 457.015 935.348 456.958 933.104 456.661 931.339 454.896 931.042 452.652ZM943.014 451.936 959.238 468 954.994 472.245 940.137 457.634C941.906 456.34 942.966 454.292 943 452.1 943 452.07 943 452 943 451.946 943 451.928 943 451.926 943.014 451.936Z" fill="#00B0F0" fill-rule="nonzero" fill-opacity="1"/><path d="M908.636 471.147C907.341 472.181 907.13 474.069 908.164 475.363 909.199 476.658 911.086 476.869 912.381 475.835 912.468 475.766 912.55 475.691 912.629 475.613L912.629 475.613C913.803 474.444 913.807 472.545 912.639 471.37 911.557 470.284 909.831 470.188 908.635 471.147ZM911.215 474.2C910.82 474.578 910.197 474.578 909.802 474.2 909.411 473.81 909.411 473.176 909.802 472.786 910.192 472.395 910.825 472.395 911.216 472.786 911.607 473.176 911.607 473.809 911.216 474.2 911.216 474.2 911.216 474.2 911.216 474.2Z" fill="#00B0F0" fill-rule="nonzero" fill-opacity="1"/><path d="M936.49 449.547C935.136 449.277 933.819 450.156 933.549 451.51 933.28 452.864 934.158 454.181 935.513 454.451 936.867 454.72 938.183 453.842 938.453 452.487 938.517 452.165 938.517 451.833 938.453 451.51 938.255 450.519 937.481 449.745 936.49 449.547ZM936 452.5C935.724 452.5 935.5 452.276 935.5 452 935.5 451.724 935.724 451.5 936 451.5 936.276 451.5 936.5 451.724 936.5 452 936.5 452.276 936.276 452.5 936 452.5Z" fill="#00B0F0" fill-rule="nonzero" fill-opacity="1"/></g></g></g></g></g></svg>